<?xml version="1.0" encoding="utf-8"?>
<!-- Generator: Adobe Illustrator 21.1.0, SVG Export Plug-In . SVG Version: 6.00 Build 0)  -->
<svg version="1.1" id="Layer_1" xmlns="http://www.w3.org/2000/svg" xmlns:xlink="http://www.w3.org/1999/xlink" x="0px" y="0px"
	 viewBox="0 0 800 800" style="enable-background:new 0 0 800 800;" xml:space="preserve">
<style type="text/css">
	.st0{fill:#F7F7F7;}
</style>
<polygon class="st0" points="386.8,75.2 451.5,112 346.3,257.6 294.3,204.2 "/>
<polygon class="st0" points="462,119.5 537.5,166.1 428.4,296.9 365.2,258.8 "/>
<polygon class="st0" points="546.7,177.2 432.6,320 499.3,354.2 601.4,242.6 "/>
<polygon class="st0" points="611.3,252.2 660.5,312.9 551.3,400.6 515.3,360.7 "/>
<polygon class="st0" points="624.3,360.9 552.1,416.8 504.9,370 426.3,334.6 395,332.7 488.8,505 468.7,512.1 382,329.2 
	413.9,299.7 339,261.3 280.6,213.7 232.7,114.3 137.5,80.7 118.6,131.8 174.1,172 199.1,307.1 234.3,369.8 348,561.6 320.8,724.8 
	566.3,724.8 560.7,566.6 604.5,492.1 "/>
</svg>
