<?xml version="1.0" encoding="utf-8"?>
<!-- Generator: Adobe Illustrator 21.1.0, SVG Export Plug-In . SVG Version: 6.00 Build 0)  -->
<svg version="1.1" xmlns="http://www.w3.org/2000/svg" xmlns:xlink="http://www.w3.org/1999/xlink" x="0px" y="0px"
	 viewBox="0 0 800 800" style="enable-background:new 0 0 800 800;" xml:space="preserve">
<style type="text/css">
	.st0{fill:#FFFFFF;}
	.st1{fill:#FDFEFE;}
</style>
<g id="Layer_2">
	<g>
		<path class="st0" d="M252.6,584.4c-1.9,9.2-5.9,20.5-15,29.7c-8,8.1-2.9,24.6-14,38.2c-7.1,8.7-35.3,23-35.3,23L175.6,691
			l15.9-10.5l17.5,0.1l13.3,18.4l1.7,17.5l5.3-16.1l-5.7-14.6l15.2,5.9l11.8,21l-4.7-22.8c0,0-18.2-14.9-18.6-21.3
			c-1.4-20.9,34.5-69,40.6-80.1l82.1,2.6c-5.9,11.2-43.2,68.8-41.5,89.7c0.5,6.4,17.1,20.1,17.1,20.1l5.8,23.8l-10.7-18.4l-14.6-7.4
			l3.5,16.3l-4.9,16.2l-3.3-19.6l-12.1-19.4l-17.5,4l-9,11.5l7.3-15.6c0,0,24.6-17,32.2-26.6c11-13.8,7.2-35.8,15.1-44.1
			c9-9.3,15.5-25,17.3-34.2l-4-51.3c-5,12.5-6.7,47.1,1.4,55.3c12.4,12.5,32.6,5.4,36.4,4.1c12-4.2,20-12.5,24.9-20
			c6.9-10.6,11.2-41.7,13.2-46.1l97.8-88.9c51,4,54-1.7,54-1.7s-11.6-7.4-10.7-10.6c0.5-2,8.1,0.8,15.7-1.8c7.9-2.8,15.9-11,15.9-11
			s-29-5-28.1-12.1c0.8-6,15.4-1.1,33.4-6.5c20.5-6.2,44.7-22.3,44.7-22.3s-60.7-2.4-60.3-6.9c0.3-2.9,24.1,1,50.2-3.5
			s54.4-17.5,54.4-17.5s-57.8,0.4-57.5-9.5c0.2-5.8,20.4-3.4,34.6-8.7c16-6,32.5-21,32.5-21s-39.9,9.4-45.7-3
			c-3.9-8.5,11.8-5,31.5-14c19.7-9,43.4-30.6,43.4-30.6s-38.2,7-59,9.1c-24.9,2.5,20-10,44.6-33.8c21.2-20.6,38.4-54.5,38.4-54.5
			s-68.6,26.4-71.7,24.8c-1.9-1,31-29.4,53.8-58.6c18.1-23.3,30-59,30-59s-79.3,55.4-74.7,53.7c2.5-0.9,38.2-30.2,55.2-64.5
			c11.3-22.8,6.5-55.6,6.5-55.6s-70.2,132.8-162.9,158c-25.1,6.8-53.3,4.4-74.9,27.6c-17.4,18.7-21.2,47.7-21.5,66.8l-21.3-14.1
			c13.4,7.4,45.7,27.5,60.6,66.3c16.4,42.6,1.5,81.3-11.3,114.7c-5.9,15.4-35.4,87.4-112.8,129.4c-20.8,11.3-23.7,11.2-25,11.5
			l1.3-0.3c14.1,71.9,14.1,75.2,14.1,75.2s-17.6-16.8-32.7-31.3c-12.3-11.8-21.9-22-27.8-20.2c-8.8,2.6-17.5,19.9-17.5,19.9
			s10.4-19,0.7-21.3c-10-2.4-31.3,24.7-31.3,24.7s6.8-30.7-0.4-36.1c-7.2-5.3-24.1-0.2-39.4,6.2c-15.8,6.7-29.9,14.8-29.9,14.8
			l27-30.5l-34.7,5.4l-50.6,7.9l60.3-44.1l-40.5-2.8l-57.9-3.9l90.6-12.3l-10.4-4.4l-14.6-6.2c0,0,9.3-0.4,16.6-1.6
			c28.6-4.8,47.8-19,52.6-22.8c21.3-16.5,35.6-43.1,39.8-52.8l9.2-1.8c-54.2,7.2-81.3-10-81.3-10s30.2-4.1,28.5-12.3
			c-1-5.1-14.1-2.9-25.9-7.4c-17.7-6.6-36.2-18.8-36.2-18.8s35.3,4.5,35.9-2.4c0.3-4.1-14.1-2.8-28.1-7.5
			c-23-7.8-50.5-21.1-50.5-21.1s74.7,9.7,76.2,3.6c1-4-43.5-3.9-81.2-18.1c-39.4-14.8-72.1-44-72.1-44s158.4,32.8,160.4,25.2
			c0.7-2.6-30.3-6-53.3-16c-30.2-13.1-54.7-33-54.7-33s109.4,28.7,112.7,19.2c2.1-5.9-43.4-13.1-69.3-24.1
			c-40.8-17.2-69.9-38.5-69.9-38.5s77.2,19.5,82.4,11.1c2.6-4.1-29.7-13-53.6-32.1C77.8,190.4,49,152.1,49,152.1
			s75.7,52.4,85.7,41.4c6.5-7.1-24.3-26.3-48.5-52.2c-25.7-27.6-45.2-61.9-45.2-61.9l73.6,50L76,84.7c-6.5-7.6-11.9-16-15.9-25.2
			l-20.6-47c40.2,57.7,80.1,94.2,109,104.1c50.4,17.1,117.2-3.7,143,23.8c27.9,29.7,62.6,135.3,83.3,130.2c27-6.6,44.6-57.7,29.9-89
			c-10.6-22.4-32.8-24-33.8-43c-1-20.9,24.9-37.2,26.5-38.1c16-9.7,33.2-8.9,37.3-8.7c4.9,0.2,8.8,1,11.4,1.5
			c15.5,3,25.1,9,30.1,11.3c17.2,7.9,29.7-4.3,56.1-7.5c39.7-4.8,74.9,20.4,74.9,20.4s-16.8-9.6-50.1-7.4
			c-17.3,1.1-29.3,6.7-46.9,16.8c-37,21.3-22.7,30.5-36.2,44c-20.5,20.5-19.6,57.8-19,85.7c0.6,26.5,5.8,42.3-4.9,54.8
			c-7.8,9.1-19.9,11.6-29.1,12.3"/>
	</g>
</g>
<g id="Layer_3">
	<path class="st1" d="M345.5,600.5l15.4,0.7l11.4-6.6l-2.7-13.7l16.3-3.9l13.3-10.6l10.5-18.7l-1.3-18.5l97.8-88.9l23.6-40.3
		c3.2-28.1-0.3-84.3-19.1-105.5l-55.7-35.1l-70.3,53.2L225.4,547.4l27.1,44.4l16.3-2.1l0.7-1.3l65,5.7l-0.7,4.1L345.5,600.5z"/>
	<path class="st0" d="M465.5,169.4c0,0,32.4,5.1,75.5-7.1c27.7-7.8,69.4-29.7,69.4-29.7s-32.9,8-52.2,12.2
		c-28.1,6.1-36.7,10.9-48.6,5.6c-4.6-2.1-11.3-6.3-20.5-5.4c-2.5,0.2-9.4,0.9-12.4,5.9C473.5,155.8,465.5,169.4,465.5,169.4z"/>
</g>
</svg>
